<svg width="24" height="24" viewBox="0 0 24 24" fill="none" xmlns="http://www.w3.org/2000/svg">
<rect width="24" height="24" fill="white"/>
<path fill-rule="evenodd" clip-rule="evenodd" d="M17 5C17 3.9 16.1 3 15 3H9C7.9 3 7 3.9 7 5V7H5C3.9 7 3 7.9 3 9V19C3 20.1 3.9 21 5 21H10C10.55 21 11 20.55 11 20V17C11 14.0255 13.1644 11.5566 16.0042 11.0823C16.5489 10.9913 17 10.5523 17 10V5ZM7 19H5V17H7V19ZM7 15H5V13H7V15ZM7 11H5V9H7V11ZM11 11H9V9H11V11ZM11 7H9V5H11V7ZM15 7H13V5H15V7Z" fill="black"/>
<path fill-rule="evenodd" clip-rule="evenodd" d="M22.1237 18.5C22.1237 18.67 22.1038 18.83 22.0838 18.99L23.1538 19.82C23.2437 19.9 23.2738 20.03 23.2137 20.14L22.2137 21.87C22.1437 21.98 22.0138 22.02 21.9038 21.98L20.6538 21.48C20.4038 21.68 20.1138 21.84 19.8138 21.97L19.6237 23.29C19.6038 23.41 19.4937 23.5 19.3737 23.5H17.3737C17.2437 23.5 17.1437 23.41 17.1237 23.29L16.9338 21.97C16.6237 21.85 16.3437 21.68 16.0837 21.48L14.8437 21.98C14.7237 22.02 14.5938 21.98 14.5337 21.87L13.5337 20.14C13.4737 20.03 13.5038 19.9 13.5938 19.82L14.6538 18.99C14.6337 18.83 14.6237 18.67 14.6237 18.5C14.6237 18.33 14.6337 18.17 14.6538 18.01L13.5938 17.18C13.4938 17.1 13.4737 16.97 13.5337 16.86L14.5337 15.13C14.6037 15.02 14.7337 14.98 14.8437 15.02L16.0837 15.52C16.3437 15.32 16.6337 15.16 16.9338 15.03L17.1237 13.71C17.1437 13.59 17.2537 13.5 17.3737 13.5H19.3737C19.4937 13.5 19.6038 13.59 19.6138 13.71L19.8037 15.03C20.1138 15.15 20.3938 15.32 20.6538 15.52L21.8937 15.02C22.0138 14.98 22.1437 15.02 22.2038 15.13L23.2038 16.86C23.2638 16.97 23.2337 17.1 23.1437 17.18L22.0838 18.01C22.1138 18.17 22.1237 18.33 22.1237 18.5ZM16.8737 18.5C16.8737 19.33 17.5437 20 18.3737 20C19.2038 20 19.8737 19.33 19.8737 18.5C19.8737 17.67 19.2038 17 18.3737 17C17.5437 17 16.8737 17.67 16.8737 18.5Z" fill="black"/>
</svg>
