<svg width="24" height="24" viewBox="0 0 24 24" fill="none" xmlns="http://www.w3.org/2000/svg">
<rect width="24" height="24" fill="none"/>
<path d="M5.75556 11.1574L7.44019 9.81807C7.84498 9.49662 8.07713 9.01445 8.07713 8.50251L8.07714 6.3119C10.619 5.48447 13.3751 5.47852 15.9229 6.3119V8.51442C15.9229 9.02636 16.155 9.50853 16.5598 9.82998L18.2325 11.1574C18.9052 11.6872 19.8636 11.6337 20.4708 11.0265L21.5006 9.99666C22.1733 9.32399 22.1733 8.20488 21.4589 7.57388C16.0598 2.80573 7.93427 2.81168 2.54107 7.57389C1.82674 8.20488 1.82674 9.32399 2.49941 9.99666L3.52923 11.0265C4.12451 11.6337 5.0829 11.6872 5.75556 11.1574Z" fill="#4e7dba"/>
<path d="M12 13C10.8954 13 10 13.8955 10 15C10 16.1046 10.8954 17 12 17C13.1046 17 14 16.1046 14 15C14 13.8955 13.1046 13 12 13Z" fill="#4e7dba"/>
<path fill-rule="evenodd" clip-rule="evenodd" d="M9.0258 10.765C6.64664 12.6333 4.99979 15.2783 4.37315 18.2377L4.21334 18.9924C4.10344 19.5115 4.49935 20 5.0299 20H18.9701C19.5006 20 19.8966 19.5115 19.7866 18.9924L19.6268 18.2377C19.0002 15.2783 17.3533 12.6333 14.9742 10.765C14.3431 10.2694 13.5638 10 12.7613 10H11.2387C10.4362 10 9.65694 10.2694 9.0258 10.765ZM8.5 15C8.5 13.067 10.067 11.5 12 11.5C13.933 11.5 15.5 13.067 15.5 15C15.5 16.933 13.933 18.5 12 18.5C10.067 18.5 8.5 16.933 8.5 15Z" fill="#4e7dba"/>
</svg>
