<svg width="24" height="24" viewBox="0 0 24 24" fill="none" xmlns="http://www.w3.org/2000/svg">
<rect width="24" height="24" fill="white"/>
<path d="M9 12C6.79 12 5 10.21 5 8C5 5.79 6.79 4 9 4C11.21 4 13 5.79 13 8C13 10.21 11.21 12 9 12ZM18 10V8C18 7.45 18.45 7 19 7C19.55 7 20 7.45 20 8V10H22C22.55 10 23 10.45 23 11C23 11.55 22.55 12 22 12H20V14C20 14.55 19.55 15 19 15C18.45 15 18 14.55 18 14V12H16C15.45 12 15 11.55 15 11C15 10.45 15.45 10 16 10H18ZM9 14C11.67 14 17 15.34 17 18V19C17 19.55 16.55 20 16 20H2C1.45 20 1 19.55 1 19V18C1 15.34 6.33 14 9 14Z" fill="black"/>
</svg>
