<svg width="24" height="24" viewBox="0 0 24 24" fill="none" xmlns="http://www.w3.org/2000/svg">
<rect width="24" height="24" fill="white"/>
<path d="M20 3H19V2C19 1.45 18.55 1 18 1C17.45 1 17 1.45 17 2V3H7V2C7 1.45 6.55 1 6 1C5.45 1 5 1.45 5 2V3H4C2.9 3 2 3.9 2 5V21C2 22.1 2.9 23 4 23H20C21.1 23 22 22.1 22 21V5C22 3.9 21.1 3 20 3ZM19 21H5C4.45 21 4 20.55 4 20V8H20V20C20 20.55 19.55 21 19 21Z" fill="black"/>
<path d="M8.67676 14.3203C8.67676 14.0442 8.90062 13.8203 9.17676 13.8203H9.42871C9.78678 13.8203 10.0521 13.7308 10.2246 13.5518C10.3971 13.3727 10.4834 13.1351 10.4834 12.8389C10.4834 12.5524 10.3971 12.3294 10.2246 12.1699C10.0553 12.0104 9.82096 11.9307 9.52148 11.9307C9.2513 11.9307 9.02507 12.0055 8.84277 12.1553C8.79922 12.1903 8.76087 12.2279 8.72773 12.2681C8.55205 12.4811 8.34548 12.7314 8.06934 12.7314H7.6582C7.38206 12.7314 7.1494 12.5033 7.22313 12.2372C7.27255 12.0588 7.3502 11.8915 7.45605 11.7354C7.65788 11.4391 7.93783 11.208 8.2959 11.042C8.65723 10.876 9.05436 10.793 9.4873 10.793C10.2393 10.793 10.8285 10.9736 11.2549 11.335C11.6813 11.693 11.8945 12.1878 11.8945 12.8193C11.8945 13.1449 11.7952 13.4443 11.5967 13.7178C11.3981 13.9912 11.1377 14.2012 10.8154 14.3477C11.2158 14.4909 11.5137 14.7057 11.709 14.9922C11.9076 15.2786 12.0068 15.6172 12.0068 16.0078C12.0068 16.6393 11.7757 17.1455 11.3135 17.5264C10.8545 17.9072 10.2458 18.0977 9.4873 18.0977C8.77767 18.0977 8.19661 17.9105 7.74414 17.5361C7.42275 17.2683 7.21632 16.9388 7.12487 16.5477C7.062 16.2788 7.29417 16.0518 7.57031 16.0518H7.98145C8.25759 16.0518 8.46389 16.2956 8.61702 16.5253C8.66061 16.5908 8.7147 16.651 8.7793 16.7061C8.98112 16.8753 9.22852 16.96 9.52148 16.96C9.85677 16.96 10.1188 16.8721 10.3076 16.6963C10.4997 16.5173 10.5957 16.2812 10.5957 15.9883C10.5957 15.2786 10.2051 14.9238 9.42383 14.9238H9.17676C8.90062 14.9238 8.67676 14.7 8.67676 14.4238V14.3203Z" fill="black"/>
<path d="M16.4111 17.7C16.4111 17.8657 16.2768 18 16.1111 18H15.3C15.1343 18 15 17.8657 15 17.7V12.5605L13.5747 13.0026C13.446 13.0425 13.3154 12.9463 13.3154 12.8116V12.1503C13.3154 12.0219 13.3971 11.9077 13.5187 11.8663L16.0144 11.016C16.209 10.9497 16.4111 11.0944 16.4111 11.3V17.7Z" fill="black"/>
</svg>
