<svg width="24" height="24" viewBox="0 0 24 24" fill="none" xmlns="http://www.w3.org/2000/svg">
<rect width="24" height="24" fill="white"/>
<path fill-rule="evenodd" clip-rule="evenodd" d="M20 4H4C2.9 4 2.01 4.9 2.01 6L2 18C2 19.1 2.9 20 4 20H11.5709C11.5242 19.6734 11.5 19.3395 11.5 19V18.5C11.5 14.634 14.634 11.5 18.5 11.5H19C20.0736 11.5 21.0907 11.7417 22 12.1736V6C22 4.9 21.1 4 20 4ZM19.6 8.25L12.53 12.67C12.21 12.87 11.79 12.87 11.47 12.67L4.4 8.25C4.15 8.09 4 7.82 4 7.53C4 6.86 4.73 6.46 5.3 6.81L12 11L18.7 6.81C19.27 6.46 20 6.86 20 7.53C20 7.82 19.85 8.09 19.6 8.25ZM22.1237 18.5C22.1237 18.67 22.1038 18.83 22.0838 18.99L23.1538 19.82C23.2437 19.9 23.2738 20.03 23.2137 20.14L22.2137 21.87C22.1437 21.98 22.0138 22.02 21.9038 21.98L20.6538 21.48C20.4038 21.68 20.1138 21.84 19.8138 21.97L19.6237 23.29C19.6038 23.41 19.4937 23.5 19.3737 23.5H17.3737C17.2437 23.5 17.1437 23.41 17.1237 23.29L16.9338 21.97C16.6237 21.85 16.3437 21.68 16.0837 21.48L14.8437 21.98C14.7237 22.02 14.5938 21.98 14.5337 21.87L13.5337 20.14C13.4737 20.03 13.5038 19.9 13.5938 19.82L14.6538 18.99C14.6337 18.83 14.6237 18.67 14.6237 18.5C14.6237 18.33 14.6337 18.17 14.6538 18.01L13.5938 17.18C13.4938 17.1 13.4737 16.97 13.5337 16.86L14.5337 15.13C14.6037 15.02 14.7337 14.98 14.8437 15.02L16.0837 15.52C16.3437 15.32 16.6337 15.16 16.9338 15.03L17.1237 13.71C17.1437 13.59 17.2537 13.5 17.3737 13.5H19.3737C19.4937 13.5 19.6038 13.59 19.6138 13.71L19.8037 15.03C20.1138 15.15 20.3938 15.32 20.6538 15.52L21.8937 15.02C22.0138 14.98 22.1437 15.02 22.2038 15.13L23.2038 16.86C23.2638 16.97 23.2337 17.1 23.1437 17.18L22.0838 18.01C22.1138 18.17 22.1237 18.33 22.1237 18.5ZM16.8737 18.5C16.8737 19.33 17.5437 20 18.3737 20C19.2038 20 19.8737 19.33 19.8737 18.5C19.8737 17.67 19.2038 17 18.3737 17C17.5437 17 16.8737 17.67 16.8737 18.5Z" fill="black"/>
</svg>
