<svg width="24" height="24" viewBox="0 0 24 24" fill="none" xmlns="http://www.w3.org/2000/svg">
<rect width="24" height="24" fill="white"/>
<path d="M1.09722 15.6346C4.47697 21.2675 4.04338 21.0365 4.31472 21.1749C4.41188 21.4325 4.47422 21.5581 4.92338 21.6122C4.92888 21.6167 4.93347 21.6204 4.93805 21.625C12.3007 21.625 12.5097 21.5663 19.0611 21.625C19.3068 21.625 19.5341 21.493 19.657 21.2803C21.6791 17.6036 22.594 16.2982 22.8873 15.6575C22.8919 15.6502 22.8965 15.6437 22.902 15.6355C22.9056 15.6282 22.9047 15.6199 22.9084 15.6126C23.0413 15.3046 23.0211 15.1533 22.902 14.9471C22.8965 14.937 22.891 14.9287 22.8855 14.9196C15.5439 2.46483 15.9738 2.37499 15.2451 2.37499C11.0706 2.45383 9.48563 2.31266 8.7853 2.37683C8.7743 2.37683 8.76605 2.37499 8.75505 2.37499C8.84855 2.34933 8.36913 2.35391 8.15922 2.71966C8.15738 2.72333 8.15555 2.72699 8.15372 2.72974C1.07247 15.2496 0.733301 14.9975 1.09722 15.6346ZM18.6642 20.25H6.16455C6.3763 19.8842 5.33863 21.6947 8.61938 15.9792C12.485 15.9802 20.5874 15.9747 21.1163 15.9847L18.6642 20.25ZM14.7189 14.6281C13.2376 14.6317 11.4785 14.629 9.38572 14.6134C10.1246 13.3365 11.0055 11.8286 12.0606 10.0447C12.8086 11.318 13.6867 12.8287 14.7189 14.6281ZM14.8491 3.74999L21.1007 14.5777C20.6956 14.5786 22.7021 14.5648 16.2855 14.6042C9.62955 3.18716 10.571 4.82891 9.96688 3.74999H14.8491ZM8.74313 4.45766C9.09697 5.06266 9.61855 5.92433 10.3629 7.17283L11.2603 8.70733L7.60097 14.9957C7.48914 15.157 5.0068 19.4525 4.94172 19.5652L2.48597 15.2927L8.74313 4.45766Z" fill="black"/>
</svg>
