<svg width="24" height="24" viewBox="0 0 24 24" fill="none" xmlns="http://www.w3.org/2000/svg">
<rect width="24" height="24" fill="white"/>
<path d="M13 5L18 5C18.55 5 19 5.45 19 6L19 18C19 18.55 18.55 19 18 19L13 19C12.45 19 12 19.45 12 20C12 20.55 12.45 21 13 21L19 21C20.1 21 21 20.1 21 19L21 5C21 3.9 20.1 3 19 3L13 3C12.45 3 12 3.45 12 4C12 4.55 12.45 5 13 5ZM12.67 11L10.79 9.12C10.4 8.73 10.4 8.1 10.79 7.71C11.18 7.32 11.81 7.32 12.2 7.71L15.79 11.3C16.18 11.69 16.18 12.32 15.79 12.71L12.2 16.3C11.81 16.69 11.18 16.69 10.79 16.3C10.4 15.91 10.4 15.28 10.79 14.89L12.67 13L4 13C3.45 13 3 12.55 3 12C3 11.45 3.45 11 4 11L12.67 11Z" fill="black"/>
</svg>
