<svg width="24" height="24" viewBox="0 0 24 24" fill="none" xmlns="http://www.w3.org/2000/svg">
<rect width="24" height="24" fill="white"/>
<path d="M17.67 11L15.79 9.12003C15.4 8.73003 15.4 8.10003 15.79 7.71003C16.18 7.32003 16.81 7.32003 17.2 7.71003L20.79 11.3C21.18 11.69 21.18 12.32 20.79 12.71L17.2 16.3C16.81 16.69 16.18 16.69 15.79 16.3C15.4 15.91 15.4 15.28 15.79 14.89L17.67 13H9C8.45 13 8 12.55 8 12C8 11.45 8.45 11 9 11H17.67Z" fill="black"/>
<path d="M11 19H6C5.45 19 5 18.55 5 18L5 6C5 5.45 5.45 5 6 5L11 5C11.55 5 12 4.55 12 4C12 3.45 11.55 3 11 3L5 3C3.9 3 3 3.9 3 5L3 19C3 20.1 3.9 21 5 21H11C11.55 21 12 20.55 12 20C12 19.45 11.55 19 11 19Z" fill="black"/>
</svg>
