<svg width="24" height="24" viewBox="0 0 24 24" fill="none" xmlns="http://www.w3.org/2000/svg">
<rect width="24" height="24" fill="none"/>
<path d="M3 18.8941V5H6.13297L10.9395 14.8854H11.1146C11.0886 14.5611 11.0562 14.1784 11.0173 13.7373C10.9784 13.2832 10.9459 12.8227 10.92 12.3557C10.8941 11.8757 10.8811 11.4411 10.8811 11.0519V5H13.4108V18.8941H10.2973L5.45189 8.95027H5.31568C5.35459 9.30054 5.38703 9.72216 5.41297 10.2151C5.45189 10.6951 5.48432 11.1751 5.51027 11.6551C5.53622 12.1351 5.54919 12.5568 5.54919 12.92V18.8941H3ZM17.7503 16.2865C16.8162 16.2865 16.0443 15.9881 15.4346 15.3914C14.8378 14.7816 14.5395 13.9254 14.5395 12.8227C14.5395 11.72 14.8314 10.8703 15.4151 10.2735C15.9989 9.67676 16.7903 9.37838 17.7892 9.37838C18.7103 9.37838 19.4757 9.67676 20.0854 10.2735C20.6951 10.8703 21 11.72 21 12.8227C21 13.9254 20.7081 14.7816 20.1243 15.3914C19.5405 15.9881 18.7492 16.2865 17.7503 16.2865ZM17.7697 14.7297C18.6259 14.7297 19.0541 14.0941 19.0541 12.8227C19.0541 11.5643 18.6259 10.9351 17.7697 10.9351C17.3157 10.9351 16.9849 11.0908 16.7773 11.4022C16.5697 11.7135 16.4659 12.187 16.4659 12.8227C16.4659 13.4584 16.5697 13.9384 16.7773 14.2627C16.9849 14.5741 17.3157 14.7297 17.7697 14.7297ZM14.7341 18.8941V17.1038H20.8054V18.8941H14.7341Z" fill="#4e7dba"/>
</svg>
