<svg width="24" height="24" viewBox="0 0 24 24" fill="none" xmlns="http://www.w3.org/2000/svg">
<rect width="24" height="24" fill="white"/>
<path d="M17.0036 7.10351L18.9765 5.13068C19.2947 4.81249 19.8321 5.03876 19.825 5.48424L19.8321 10.8512C19.8321 11.134 19.6129 11.3532 19.33 11.3532L13.9701 11.3532C13.5247 11.3462 13.2984 10.8088 13.6166 10.4906L15.5894 8.51773C12.9519 5.88022 8.44764 6.21256 6.29096 9.52889C5.01817 11.4664 5.02524 14.0614 6.29096 15.9918C8.285 19.0465 12.266 19.5627 14.9459 17.5616C15.3349 17.2717 15.8935 17.3071 16.24 17.6535C16.6642 18.0778 16.6289 18.792 16.148 19.1597C12.6054 21.8255 7.35162 21.1679 4.65754 17.1727C2.88271 14.5352 2.88271 10.9855 4.65754 8.34802C7.58497 4.02053 13.5105 3.61041 17.0036 7.10351Z" fill="black"/>
</svg>
