<?xml version="1.0" standalone="no"?>
<!DOCTYPE svg PUBLIC "-//W3C//DTD SVG 20010904//EN"
 "http://www.w3.org/TR/2001/REC-SVG-20010904/DTD/svg10.dtd">
<svg version="1.0" xmlns="http://www.w3.org/2000/svg"
 width="130.000000pt" height="130.000000pt" viewBox="0 0 130.000000 130.000000"
 preserveAspectRatio="xMidYMid meet">
<metadata>
Created by potrace 1.15, written by Peter Selinger 2001-2017
</metadata>
<g transform="translate(0.000000,130.000000) scale(0.100000,-0.100000)"
fill="#000000" stroke="none">
<path d="M472 1281 c-114 -33 -190 -79 -282 -171 -135 -135 -190 -267 -190
-460 0 -193 55 -325 190 -460 135 -135 267 -190 460 -190 193 0 325 55 460
190 135 135 190 267 190 460 0 193 -55 325 -190 460 -93 93 -180 145 -296 174
-85 22 -260 20 -342 -3z"/>
</g>
</svg>
